<svg xmlns="http://www.w3.org/2000/svg" width="1em" height="1em" viewBox="0 0 24 24"><g fill="none" stroke="currentColor" stroke-width="1.5"><circle cx="12" cy="12" r="3"/><path stroke-linecap="round" d="M3.661 10.64c.473.296.777.802.777 1.36s-.304 1.064-.777 1.36c-.321.203-.529.364-.676.556a2 2 0 0 0-.396 1.479c.052.394.285.798.75 1.605c.467.807.7 1.21 1.015 1.453a2 2 0 0 0 1.479.396c.24-.032.483-.13.819-.308a1.62 1.62 0 0 1 1.567.008c.483.28.77.795.79 1.353c.014.38.05.64.143.863a2 2 0 0 0 1.083 1.083C10.602 22 11.068 22 12 22s1.398 0 1.765-.152a2 2 0 0 0 1.083-1.083c.092-.223.129-.483.143-.863c.02-.558.307-1.074.79-1.353a1.62 1.62 0 0 1 1.567-.008c.336.178.58.276.82.308a2 2 0 0 0 1.478-.396c.315-.242.548-.646 1.014-1.453c.208-.36.369-.639.489-.873m-.81-2.766a1.62 1.62 0 0 1-.777-1.36c0-.559.304-1.065.777-1.362c.321-.202.528-.363.676-.555a2 2 0 0 0 .396-1.479c-.052-.394-.285-.798-.75-1.605c-.467-.807-.7-1.21-1.015-1.453a2 2 0 0 0-1.479-.396c-.24.032-.483.13-.82.308a1.62 1.62 0 0 1-1.566-.008a1.62 1.62 0 0 1-.79-1.353c-.014-.38-.05-.64-.143-.863a2 2 0 0 0-1.083-1.083C13.398 2 12.932 2 12 2s-1.398 0-1.765.152a2 2 0 0 0-1.083 1.083c-.092.223-.129.483-.143.863a1.62 1.62 0 0 1-.79 1.353a1.62 1.62 0 0 1-1.567.008c-.336-.178-.58-.276-.82-.308a2 2 0 0 0-1.478.396C4.04 5.79 3.806 6.193 3.34 7c-.208.36-.369.639-.489.873"/></g></svg>