<svg xmlns="http://www.w3.org/2000/svg" width="1em" height="1em" viewBox="0 0 24 24"><path fill="currentColor" d="M17 12a5 5 0 1 1-10 0a5 5 0 0 1 10 0"/><path fill="currentColor" fill-rule="evenodd" d="M12 1.25a.75.75 0 0 1 .75.75v2a.75.75 0 0 1-1.5 0V2a.75.75 0 0 1 .75-.75M1.25 12a.75.75 0 0 1 .75-.75h2a.75.75 0 0 1 0 1.5H2a.75.75 0 0 1-.75-.75m18 0a.75.75 0 0 1 .75-.75h2a.75.75 0 0 1 0 1.5h-2a.75.75 0 0 1-.75-.75M12 19.25a.75.75 0 0 1 .75.75v2a.75.75 0 0 1-1.5 0v-2a.75.75 0 0 1 .75-.75" clip-rule="evenodd"/><path fill="currentColor" d="M3.67 3.716a.75.75 0 0 1 1.059-.048L6.95 5.7a.75.75 0 0 1-1.012 1.107L3.717 4.775a.75.75 0 0 1-.048-1.06m16.663.001a.75.75 0 0 1-.047 1.06l-2.223 2.03A.75.75 0 1 1 17.05 5.7l2.222-2.032a.75.75 0 0 1 1.06.048m-3.306 13.309a.75.75 0 0 1 1.06 0l2.223 2.222a.75.75 0 1 1-1.061 1.06l-2.222-2.222a.75.75 0 0 1 0-1.06m-10.051 0a.75.75 0 0 1 0 1.06l-2.222 2.223a.75.75 0 0 1-1.06-1.06l2.222-2.223a.75.75 0 0 1 1.06 0" opacity=".5"/></svg>